<svg width="1728" height="1117" viewBox="0 0 1728 1117" fill="none" xmlns="http://www.w3.org/2000/svg">
<g clip-path="url(#clip0_2_7)">
<rect width="1728" height="1117" fill="#D0D0D0"/>
<path d="M313.5 209L1102.88 760.25H-475.882L313.5 209Z" fill="#C8A2C8"/>
<path d="M1225 143L2729.29 838.25H-279.286L1225 143Z" fill="#C8A2C8"/>
<path d="M1339.5 533L1948.75 915.5H730.251L1339.5 533Z" fill="#C8A2C8"/>
<path d="M755 696L1243.44 957H266.562L755 696Z" fill="#C8A2C8"/>
<path d="M111.5 672L635 1044L111.5 1416L-412 1044L111.5 672Z" fill="#5C5C5C"/>
<path d="M111.5 672L635 1044L111.5 1416L-412 1044L111.5 672Z" fill="#5C5C5C"/>
<path d="M455.78 1083.74L111.259 671.344L976.904 952.609L455.78 1083.74Z" fill="#5C5C5C"/>
<path d="M1325.79 1114.35L796.923 896.678L1786.29 775.199L1325.79 1114.35Z" fill="#5C5C5C"/>
<rect x="322" y="944" width="1409" height="302" fill="#5C5C5C"/>
<path d="M1734.2 799.012L1843.06 1048.97L1518.03 965.137L1734.2 799.012Z" fill="#5C5C5C"/>
</g>
<defs>
<clipPath id="clip0_2_7">
<rect width="1728" height="1117" fill="white"/>
</clipPath>
</defs>
</svg>
